# xmcd
#
# Track frame offsets:
#	150
#	14035
#	26002
#	40052
#	54609
#	67410
#	82568
#	96931
#	107442
#	118708
#	138008
#	149588
#	160091
#	171288
#	184110
#	197787
#	213207
#	229758
#	244538
#	260398
#
# Disc length: 3634 seconds
#
# Revision: 1
# Processed by: cddbd v1.5.1PL0 Copyright (c) Steve Scherf et al.
# Submitted via: audiograbber 1.82.02
#
DISCID=140e3014
DTITLE=Johnny Chester - Greatest Hits
DYEAR=1900
DGENRE=Country
TTITLE0=Shes's My Kind Of Women
TTITLE1=Let's Build A Love Together
TTITLE2=Once I Was A Truck Driving Man
TTITLE3=The One In The Middle Of Conely
TTITLE4=Gwen
TTITLE5=No Where In Particular
TTITLE6=Glory, Glory
TTITLE7=The Worlds Greatest Mum
TTITLE8=Kawliga
TTITLE9=My Ding a Ling
TTITLE10=Midnight Bus
TTITLE11=A Lonely Man Like Me
TTITLE12=Shame And Scandal
TTITLE13=Ready Ain't Revenge
TTITLE14=My Special Angel
TTITLE15=Highway 31
TTITLE16=Gotta Get Back To Tamworth
TTITLE17=Sally On Sunday
TTITLE18=She's Gone
TTITLE19=Mother In Law
EXTD=
EXTT0=
EXTT1=
EXTT2=
EXTT3=
EXTT4=
EXTT5=
EXTT6=
EXTT7=
EXTT8=
EXTT9=
EXTT10=
EXTT11=
EXTT12=
EXTT13=
EXTT14=
EXTT15=
EXTT16=
EXTT17=
EXTT18=
EXTT19=
PLAYORDER=
